<svg xmlns="http://www.w3.org/2000/svg" xmlns:xlink="http://www.w3.org/1999/xlink" version="1.1" x="0px" y="0px" viewBox="0 0 100 100" enable-background="new 0 0 100 100" xml:space="preserve"><g><path fill="#f2a43a" d="M53.385,72.497H32.777v-41.33h20.608c0.829,0,1.5-0.671,1.5-1.5s-0.671-1.5-1.5-1.5H31.277c-0.829,0-1.5,0.671-1.5,1.5   v44.33c0,0.828,0.671,1.5,1.5,1.5h22.108c0.829,0,1.5-0.672,1.5-1.5S54.214,72.497,53.385,72.497z"/><path fill="#f2a43a" d="M65.64,50.332H49.673l6.908-6.908c0.586-0.585,0.586-1.535,0-2.121s-1.535-0.586-2.121,0l-9.375,9.375   c-0.317,0.317-0.448,0.739-0.421,1.154c-0.026,0.415,0.104,0.837,0.421,1.154l9.375,9.375c0.293,0.293,0.677,0.439,1.061,0.439   s0.768-0.146,1.061-0.439c0.586-0.586,0.586-1.535,0-2.121l-6.908-6.908H65.64c0.828,0,1.5-0.672,1.5-1.5   S66.468,50.332,65.64,50.332z"/></g></svg>
