<svg xmlns="http://www.w3.org/2000/svg" xmlns:xlink="http://www.w3.org/1999/xlink" version="1.1" x="0px" y="0px" viewBox="0 0 100 100" enable-background="new 0 0 100 100" xml:space="preserve"><g><path fill="#f2a43a" d="M54.385,72.497H33.777v-41.33h20.608c0.829,0,1.5-0.671,1.5-1.5s-0.671-1.5-1.5-1.5H32.277c-0.829,0-1.5,0.671-1.5,1.5   v44.33c0,0.828,0.671,1.5,1.5,1.5h22.108c0.829,0,1.5-0.672,1.5-1.5S55.214,72.497,54.385,72.497z"/><path fill="#f2a43a" d="M67.7,50.678l-9.375-9.375c-0.586-0.586-1.535-0.586-2.121,0c-0.586,0.585-0.586,1.536,0,2.121l6.908,6.908H47.146   c-0.829,0-1.5,0.672-1.5,1.5s0.671,1.5,1.5,1.5h15.967l-6.908,6.908c-0.586,0.586-0.586,1.535,0,2.121   c0.293,0.293,0.677,0.439,1.061,0.439s0.768-0.146,1.061-0.439l9.375-9.375c0.317-0.317,0.448-0.739,0.421-1.154   C68.148,51.417,68.018,50.995,67.7,50.678z"/></g></svg>
